<svg width="80" height="57" viewBox="0 0 80 57" fill="none" xmlns="http://www.w3.org/2000/svg">
<path d="M3.00031 0.499893C1.61959 0.49989 0.500303 1.61918 0.5003 2.99989C0.500297 4.3806 1.61958 5.49989 3.00029 5.49989L3.00031 0.499893ZM64.988 56.7158C66.2117 57.3553 67.7221 56.8818 68.3617 55.6581L78.7834 35.7173C79.4229 34.4936 78.9494 32.9832 77.7257 32.3436C76.5021 31.7041 74.9916 32.1777 74.3521 33.4013L65.0883 51.1265L47.3631 41.8627C46.1395 41.2232 44.629 41.6967 43.9895 42.9204C43.35 44.1441 43.8235 45.6545 45.0472 46.294L64.988 56.7158ZM3.00029 5.49989C25.4549 5.49994 40.5859 17.7641 50.217 30.2751C55.0323 36.5301 58.4295 42.7986 60.6225 47.5085C61.7174 49.8602 62.5082 51.8146 63.0225 53.1726C63.2795 53.8514 63.4672 54.3805 63.5891 54.7349C63.6501 54.912 63.6945 55.0455 63.7229 55.1321C63.7371 55.1754 63.7474 55.2069 63.7536 55.2264C63.7567 55.2361 63.7588 55.2428 63.76 55.2464C63.7606 55.2483 63.7609 55.2493 63.761 55.2496C63.761 55.2497 63.7609 55.2493 63.7609 55.2494C63.7607 55.2488 63.7605 55.248 66.146 54.5001C68.5315 53.7522 68.5312 53.7511 68.5307 53.7497C68.5305 53.749 68.53 53.7474 68.5296 53.746C68.5287 53.7431 68.5275 53.7395 68.5261 53.7351C68.5233 53.7262 68.5195 53.7143 68.5147 53.6992C68.505 53.6692 68.4914 53.6269 68.4736 53.5727C68.438 53.4644 68.3861 53.3087 68.3173 53.1087C68.1797 52.7087 67.9746 52.1313 67.6984 51.4019C67.1461 49.9435 66.3083 47.8744 65.1552 45.398C62.8521 40.4516 59.2753 33.8451 54.179 27.225C43.9873 13.9859 27.5454 0.499948 3.00031 0.499893L3.00029 5.49989Z" fill="black"/>
</svg>
