<svg width="84" height="60" viewBox="0 0 84 60" fill="none" xmlns="http://www.w3.org/2000/svg">
<path d="M80.6275 0.150361C82.0082 0.150357 83.1275 1.26964 83.1275 2.65036C83.1275 4.03107 82.0082 5.15036 80.6275 5.15036L80.6275 0.150361ZM14.825 59.4775C13.6013 60.117 12.0909 59.6434 11.4514 58.4198L1.02964 38.4789C0.390113 37.2553 0.86365 35.7448 2.08732 35.1053C3.31099 34.4658 4.82141 34.9393 5.46094 36.163L14.7247 53.8882L32.4499 44.6244C33.6736 43.9849 35.184 44.4584 35.8235 45.6821C36.4631 46.9058 35.9895 48.4162 34.7659 49.0557L14.825 59.4775ZM80.6275 5.15036C56.7532 5.15042 40.6686 18.1924 30.4386 31.4811C25.324 38.125 21.7162 44.7825 19.3874 49.784C18.2245 52.2816 17.3845 54.3575 16.838 55.8006C16.5649 56.5219 16.3653 57.0844 16.2356 57.4616C16.1707 57.6502 16.1233 57.7923 16.093 57.8848C16.0778 57.931 16.0669 57.9648 16.0602 57.9858C16.0568 57.9963 16.0545 58.0035 16.0532 58.0075C16.0526 58.0095 16.0522 58.0107 16.0521 58.0111C16.0521 58.0113 16.0522 58.0109 16.0521 58.011C16.0523 58.0105 16.0526 58.0097 13.667 57.2618C11.2815 56.5139 11.2819 56.5127 11.2823 56.5114C11.2826 56.5106 11.2831 56.509 11.2835 56.5075C11.2845 56.5046 11.2857 56.5008 11.2871 56.4962C11.2901 56.4869 11.294 56.4744 11.2991 56.4587C11.3092 56.4271 11.3236 56.3826 11.3424 56.3255C11.3798 56.2113 11.4347 56.0468 11.5074 55.8354C11.6528 55.4126 11.8698 54.8018 12.1621 54.0298C12.7466 52.4864 13.6337 50.2958 14.8546 47.6735C17.2936 42.4354 21.081 35.4401 26.4766 28.4311C37.2671 14.4142 54.6627 0.150421 80.6275 0.150361L80.6275 5.15036Z" fill="black"/>
</svg>
