<svg width="136" height="69" viewBox="0 0 136 69" fill="none" xmlns="http://www.w3.org/2000/svg">
<path d="M68.7134 1C-18.6599 3.1844 -23.9051 53.4256 68.7134 53.4256C165.558 53.4256 146.184 0.999999 68.7134 1Z" fill="#EBFFF2" stroke="black" stroke-width="1.45627"/>
<path d="M67.9885 9.7379C57.3093 9.49519 33.3294 10.6117 22.8443 17.0192M15.563 23.5722C15.0775 29.1545 22.1162 40.6105 54.154 41.7755M62.8914 43.2317C75.5124 42.989 103.23 40.6105 113.133 33.0379M76.726 9.7379C90.3178 10.7087 117.647 15.2714 118.23 25.7566" stroke="black" stroke-width="1.45627"/>
<path d="M1 46.0371L1 28.6691C11.5543 65.0466 128.945 58.1428 134.122 31.4926L134.248 28.6691C134.345 29.633 134.3 30.5745 134.122 31.4926L133.47 46.0371C105.811 83.6678 14.1014 65.5761 1 46.0371Z" fill="black" stroke="black" stroke-width="1.45627"/>
<g clip-path="url(#clip0_920_5506)">
<path d="M94.5632 25.0185L40.6045 24.5294L40.64 27.6435L94.5987 28.1326L94.5632 25.0185Z" fill="black"/>
<path d="M50.2938 17.6552L44.9658 19.7673L83.1783 35.76L88.5063 33.6479L50.2938 17.6552Z" fill="black"/>
<path d="M70.5089 15.7941L62.8677 15.71L62.8614 37.6954L70.5026 37.7795L70.5089 15.7941Z" fill="black"/>
<path d="M83.1847 18.0188L44.9634 33.1703L50.2901 35.3996L88.5115 20.2482L83.1847 18.0188Z" fill="black"/>
</g>
<defs>
<clipPath id="clip0_920_5506">
<rect width="54" height="22" fill="white" transform="translate(40.0659 15.3956) rotate(0.752751)"/>
</clipPath>
</defs>
</svg>
