<svg width="36" height="37" viewBox="0 0 36 37" fill="none" xmlns="http://www.w3.org/2000/svg">
<g filter="url(#filter0_d_1143_7070)">
<g clip-path="url(#clip0_1143_7070)">
<rect y="0.685059" width="32.937" height="32.937" rx="16.4685" fill="white"/>
<path d="M17.7943 8.30483C19.5435 8.30483 21.0535 8.61131 22.3242 9.22427C23.595 9.82227 24.6116 10.667 25.3741 11.7583L21.3824 13.7766C20.7844 13.2533 20.2013 12.887 19.6332 12.6777C19.08 12.4535 18.4297 12.3414 17.6822 12.3414C16.8749 12.3414 16.1872 12.5581 15.6191 12.9917C15.051 13.4103 14.6922 14.0083 14.5427 14.7857C15.7088 14.0532 17.0992 13.6869 18.7138 13.6869C19.8799 13.6869 20.8965 13.8812 21.7636 14.2699C22.6457 14.6437 23.3259 15.1894 23.8043 15.907C24.2827 16.6096 24.5219 17.4394 24.5219 18.3962C24.5219 19.7716 24.0883 20.9676 23.2212 21.9842C22.3691 23.0008 21.2254 23.7782 19.7902 24.3164C18.3699 24.8546 16.8375 25.1237 15.193 25.1237C12.8309 25.1237 10.9995 24.608 9.69884 23.5764C8.41312 22.5448 7.77027 20.9452 7.77027 18.7774C7.77027 16.6694 8.17392 14.8306 8.98123 13.2608C9.78854 11.6761 10.9472 10.4577 12.4571 9.60549C13.9671 8.73839 15.7462 8.30483 17.7943 8.30483ZM16.3591 17.0507C15.7013 17.0507 15.1556 17.2824 14.7221 17.7458C14.2885 18.2093 14.0718 18.7699 14.0718 19.4277C14.0718 19.8912 14.2213 20.2575 14.5203 20.5266C14.8193 20.7807 15.2304 20.9078 15.7536 20.9078C16.4264 20.9078 16.9796 20.6611 17.4131 20.1678C17.8467 19.6744 18.0634 19.1063 18.0634 18.4634C18.0634 18.0299 17.9139 17.686 17.6149 17.4319C17.3159 17.1777 16.8973 17.0507 16.3591 17.0507Z" fill="black"/>
</g>
<rect x="0.350394" y="1.03545" width="32.2362" height="32.2362" rx="16.1181" stroke="black" stroke-width="0.700787"/>
</g>
<defs>
<filter id="filter0_d_1143_7070" x="0" y="0.685059" width="35.7402" height="35.7402" filterUnits="userSpaceOnUse" color-interpolation-filters="sRGB">
<feFlood flood-opacity="0" result="BackgroundImageFix"/>
<feColorMatrix in="SourceAlpha" type="matrix" values="0 0 0 0 0 0 0 0 0 0 0 0 0 0 0 0 0 0 127 0" result="hardAlpha"/>
<feOffset dx="2.80315" dy="2.80315"/>
<feColorMatrix type="matrix" values="0 0 0 0 0 0 0 0 0 0 0 0 0 0 0 0 0 0 1 0"/>
<feBlend mode="normal" in2="BackgroundImageFix" result="effect1_dropShadow_1143_7070"/>
<feBlend mode="normal" in="SourceGraphic" in2="effect1_dropShadow_1143_7070" result="shape"/>
</filter>
<clipPath id="clip0_1143_7070">
<rect y="0.685059" width="32.937" height="32.937" rx="16.4685" fill="white"/>
</clipPath>
</defs>
</svg>
