<svg width="191" height="58" viewBox="0 0 191 58" fill="none" xmlns="http://www.w3.org/2000/svg">
<rect x="25.6323" y="5.0675" width="6.53858" height="46.9237" fill="black"/>
<rect x="43.1792" y="9.62756" width="6.53858" height="46.9237" transform="rotate(45 43.1792 9.62756)" fill="black"/>
<rect x="52.3628" y="25.26" width="6.53858" height="46.9237" transform="rotate(90 52.3628 25.26)" fill="black"/>
<rect x="47.8027" y="42.8077" width="6.53858" height="46.9237" transform="rotate(135 47.8027 42.8077)" fill="black"/>
<path d="M72.556 9.93632H92.4265V12.987H75.8953V22.51H90.7775V25.4782H75.8953V35.9493H92.8388V39H72.556V9.93632ZM95.9368 18.1813H98.6576L98.9874 21.232H99.0286C99.6333 20.0227 100.581 19.0745 101.873 18.3875C103.165 17.7004 104.649 17.3568 106.325 17.3568C107.947 17.3568 109.307 17.7279 110.407 18.4699C111.534 19.1845 112.372 20.2151 112.921 21.5618H112.963C113.87 20.1601 114.996 19.1158 116.343 18.4287C117.69 17.7141 119.174 17.3568 120.795 17.3568C123.077 17.3568 124.849 18.0439 126.114 19.4181C127.378 20.7923 128.01 22.7024 128.01 25.1484V39H124.836V25.3545C124.836 23.7605 124.396 22.51 123.516 21.603C122.637 20.6961 121.414 20.2426 119.847 20.2426C117.896 20.2426 116.357 20.9022 115.23 22.2214C114.103 23.5406 113.54 25.272 113.54 27.4158V39H110.407V25.3545C110.407 23.733 109.967 22.4825 109.088 21.603C108.208 20.6961 106.971 20.2426 105.377 20.2426C103.426 20.2426 101.887 20.9022 100.76 22.2214C99.6333 23.5406 99.0699 25.272 99.0699 27.4158V39H95.9368V18.1813ZM138.73 39.8245C137.164 39.8245 135.762 39.5634 134.525 39.0412C133.316 38.519 132.368 37.777 131.681 36.8151C131.021 35.8532 130.691 34.7676 130.691 33.5583C130.691 31.7994 131.447 30.3153 132.959 29.106C134.47 27.8967 136.848 27.0997 140.091 26.7149L145.244 26.0966C145.766 26.0416 146.178 25.8767 146.481 25.6018C146.783 25.2995 146.934 24.9285 146.934 24.4888C146.934 23.1971 146.371 22.1664 145.244 21.3969C144.117 20.5999 142.647 20.2014 140.833 20.2014C139.569 20.2014 138.428 20.4487 137.411 20.9434C136.394 21.4106 135.583 22.029 134.979 22.7985C134.374 23.5681 134.044 24.3651 133.989 25.1896L131.145 23.9941C131.282 22.8398 131.791 21.7542 132.67 20.7373C133.55 19.7204 134.718 18.9096 136.174 18.305C137.631 17.6729 139.225 17.3568 140.956 17.3568C142.715 17.3568 144.282 17.6729 145.656 18.305C147.03 18.9371 148.102 19.8303 148.872 20.9846C149.641 22.1115 150.026 23.4444 150.026 24.9835V39H147.181L146.852 35.5371H146.81C146.068 36.8838 144.997 37.9419 143.595 38.7114C142.193 39.4535 140.572 39.8245 138.73 39.8245ZM139.266 36.98C140.695 36.98 141.987 36.6914 143.141 36.1142C144.296 35.5096 145.203 34.6851 145.862 33.6407C146.522 32.5964 146.852 31.4146 146.852 30.0954V28.6113L140.421 29.3946C136.023 29.9442 133.825 31.3184 133.825 33.5171C133.825 34.5614 134.333 35.3997 135.35 36.0318C136.367 36.6639 137.672 36.98 139.266 36.98ZM155.846 14.1413C155.159 14.1413 154.596 13.9352 154.156 13.5229C153.744 13.0832 153.538 12.5198 153.538 11.8327C153.538 11.1456 153.744 10.5959 154.156 10.1837C154.596 9.77142 155.159 9.56529 155.846 9.56529C156.533 9.56529 157.097 9.77142 157.536 10.1837C157.976 10.5959 158.196 11.1456 158.196 11.8327C158.196 12.5198 157.976 13.0832 157.536 13.5229C157.097 13.9352 156.533 14.1413 155.846 14.1413ZM154.238 18.1813H157.371V39H154.238V18.1813ZM161.921 8.69957H165.054V39H161.921V8.69957ZM177.165 48.4818C174.637 48.4818 172.438 47.9871 170.569 46.9977C168.728 46.0357 167.395 44.7165 166.57 43.0401L169.25 41.2262C169.937 42.5728 170.954 43.6447 172.301 44.4417C173.675 45.2387 175.269 45.6372 177.083 45.6372C179.446 45.6372 181.302 45.0051 182.648 43.7409C183.995 42.5041 184.668 40.7864 184.668 38.5877V36.7738H184.627C183.912 37.9831 182.909 38.9313 181.618 39.6184C180.326 40.3055 178.952 40.649 177.495 40.649C175.791 40.649 174.293 40.2505 173.002 39.4535C171.71 38.6839 170.707 37.5983 169.992 36.1967C169.278 34.795 168.92 33.2147 168.92 31.4558V18.1813H172.053V31.4558C172.053 33.3522 172.576 34.8912 173.62 36.073C174.664 37.2273 176.08 37.8045 177.866 37.8045C179.075 37.8045 180.188 37.5159 181.205 36.9387C182.25 36.3341 183.074 35.5234 183.679 34.5065C184.311 33.4621 184.627 32.2941 184.627 31.0023V18.1813H187.76L187.801 38.5877C187.801 41.6934 186.839 44.1119 184.916 45.8434C183.019 47.6023 180.436 48.4818 177.165 48.4818Z" fill="black"/>
</svg>
