<svg width="38" height="71" viewBox="0 0 38 71" fill="none" xmlns="http://www.w3.org/2000/svg">
<path d="M21.5 3C21.5 1.61929 20.3807 0.5 19 0.5C17.6193 0.5 16.5 1.61929 16.5 3L21.5 3ZM17.2322 69.7678C18.2085 70.7441 19.7915 70.7441 20.7678 69.7678L36.6777 53.8579C37.654 52.8816 37.654 51.2986 36.6777 50.3223C35.7014 49.346 34.1184 49.346 33.1421 50.3223L19 64.4645L4.85786 50.3223C3.88155 49.346 2.29864 49.346 1.32233 50.3223C0.346018 51.2986 0.346018 52.8816 1.32233 53.8579L17.2322 69.7678ZM16.5 3L16.5 68L21.5 68L21.5 3L16.5 3Z" fill="black"/>
</svg>
