<svg width="36" height="37" viewBox="0 0 36 37" fill="none" xmlns="http://www.w3.org/2000/svg">
<g filter="url(#filter0_d_974_4785)">
<g clip-path="url(#clip0_974_4785)">
<rect y="0.874023" width="32.937" height="32.937" rx="16.4685" fill="white"/>
<path d="M15.8264 25.3127C13.3148 25.3127 11.3489 24.8343 9.92859 23.8775C8.50833 22.9207 7.7982 21.5752 7.7982 19.8409L14.2118 18.6524C14.1819 19.37 14.3239 19.9381 14.6379 20.3567C14.9668 20.7753 15.4228 20.9846 16.0058 20.9846C16.544 20.9846 16.9776 20.8202 17.3065 20.4913C17.6354 20.1624 17.7998 19.7288 17.7998 19.1906C17.7998 18.8019 17.6653 18.4954 17.3962 18.2712C17.1271 18.032 16.7533 17.9049 16.2749 17.89L14.9743 17.8451L15.3779 15.3559L16.6786 15.3111C17.2467 15.2961 17.7101 15.1167 18.0689 14.7729C18.4277 14.429 18.6071 14.0029 18.6071 13.4946C18.6071 13.1807 18.495 12.9415 18.2708 12.777C18.0615 12.5976 17.7625 12.5079 17.3738 12.5079C16.8356 12.5079 16.3646 12.6798 15.961 13.0237C15.5723 13.3526 15.3106 13.8385 15.1761 14.4813L9.23341 13.4946C9.68191 11.895 10.6312 10.6541 12.0814 9.77203C13.5465 8.87503 15.4078 8.42652 17.6653 8.42652C19.8331 8.42652 21.5374 8.80775 22.7782 9.57021C24.034 10.3177 24.6619 11.3642 24.6619 12.7097C24.6619 13.5768 24.3854 14.3542 23.8322 15.042C23.294 15.7297 22.5988 16.2305 21.7467 16.5444V16.5893C22.539 16.8883 23.152 17.3219 23.5855 17.89C24.0191 18.4431 24.2359 19.1084 24.2359 19.8858C24.2359 20.9921 23.8845 21.9564 23.1819 22.7786C22.4792 23.586 21.4925 24.2139 20.2218 24.6624C18.951 25.0959 17.4859 25.3127 15.8264 25.3127Z" fill="black"/>
</g>
<rect x="0.350394" y="1.22442" width="32.2362" height="32.2362" rx="16.1181" stroke="black" stroke-width="0.700787"/>
</g>
<defs>
<filter id="filter0_d_974_4785" x="0" y="0.874023" width="35.7402" height="35.7402" filterUnits="userSpaceOnUse" color-interpolation-filters="sRGB">
<feFlood flood-opacity="0" result="BackgroundImageFix"/>
<feColorMatrix in="SourceAlpha" type="matrix" values="0 0 0 0 0 0 0 0 0 0 0 0 0 0 0 0 0 0 127 0" result="hardAlpha"/>
<feOffset dx="2.80315" dy="2.80315"/>
<feColorMatrix type="matrix" values="0 0 0 0 0 0 0 0 0 0 0 0 0 0 0 0 0 0 1 0"/>
<feBlend mode="normal" in2="BackgroundImageFix" result="effect1_dropShadow_974_4785"/>
<feBlend mode="normal" in="SourceGraphic" in2="effect1_dropShadow_974_4785" result="shape"/>
</filter>
<clipPath id="clip0_974_4785">
<rect y="0.874023" width="32.937" height="32.937" rx="16.4685" fill="white"/>
</clipPath>
</defs>
</svg>
